<?xml version="1.0" encoding="UTF-8"?>
<svg version="1.1" xmlns="http://www.w3.org/2000/svg" width="448" height="448">
<path d="M0 0 C147.84 0 295.68 0 448 0 C448 147.84 448 295.68 448 448 C300.16 448 152.32 448 0 448 C0 300.16 0 152.32 0 0 Z " fill="#DB7F49" transform="translate(0,0)"/>
<path d="M0 0 C0.69351563 0.53109375 1.38703125 1.0621875 2.1015625 1.609375 C11.13318627 8.93231319 17.77319295 19.22484415 22 30 C22 31.32 22 32.64 22 34 C22.66 34 23.32 34 24 34 C24.10957031 33.12085938 24.21914062 32.24171875 24.33203125 31.3359375 C26.01646395 22.9236245 31.69588938 15.57371157 37 9 C37.4021875 8.44054687 37.804375 7.88109375 38.21875 7.3046875 C46.96050395 -4.15553871 62.45312034 -12.60828639 76.30078125 -15.4765625 C78.87560302 -15.7967002 81.40559021 -15.9140705 84 -16 C84.69625488 -16.03641602 85.39250977 -16.07283203 86.10986328 -16.11035156 C98.72568802 -16.7308447 109.12948587 -15.24866558 121 -11 C122.99909971 -10.33063852 124.9987643 -9.66294805 127 -9 C127 -8.34 127 -7.68 127 -7 C127.88816406 -6.74605469 128.77632812 -6.49210938 129.69140625 -6.23046875 C134.98568469 -4.26152222 138.77672345 -0.67182961 143 3 C143.64453125 3.55945313 144.2890625 4.11890625 144.953125 4.6953125 C152.88756315 12.09363996 158.13186056 21.96834166 162 32 C162.48146484 33.24523437 162.48146484 33.24523437 162.97265625 34.515625 C168.67779184 52.66591683 165.85384176 73.31304788 157.46459961 89.99658203 C153.98395798 96.48538703 149.58973769 101.86744726 144.59790039 107.26147461 C143.40920398 108.55478357 142.23634158 109.86268162 141.07202148 111.17797852 C135.42617713 117.5468168 129.53446674 123.62040408 123.5065918 129.6237793 C121.93225845 131.1927236 120.36338411 132.76698558 118.79492188 134.34179688 C113.90805489 139.23188571 108.98089871 144.02603894 103.72338867 148.52172852 C101.14323046 150.7349114 98.67488859 153.0580758 96.1875 155.375 C91.48971182 159.72004303 86.63406748 163.80609467 81.6484375 167.8203125 C79.02724881 169.97757399 76.50845719 172.21311 74 174.5 C68.82812206 179.20616382 63.4379003 183.60666812 58 188 C56.26990474 189.41553248 54.54074945 190.83221453 52.8125 192.25 C51.42559997 193.38364003 50.0386767 194.51725174 48.65136719 195.65039062 C47.43014625 196.64845528 46.20953575 197.64726698 44.98925781 198.64648438 C42.8068731 200.43287582 40.62235152 202.21662683 38.4375 204 C37.38236206 204.8647998 37.38236206 204.8647998 36.3059082 205.74707031 C35.64679443 206.28428711 34.98768066 206.82150391 34.30859375 207.375 C33.71876709 207.85710937 33.12894043 208.33921875 32.52124023 208.8359375 C29.75051995 210.95610992 27.75021516 211.2124746 24.3125 211.3125 C23.48363281 211.34988281 22.65476563 211.38726562 21.80078125 211.42578125 C15.35391377 210.44571353 10.4349173 205.92960043 5.6875 201.75 C4.54650943 200.76453964 3.40457434 199.78017186 2.26171875 198.796875 C1.42906494 198.07854492 1.42906494 198.07854492 0.57958984 197.34570312 C-1.57316409 195.51170318 -3.78053735 193.75239791 -6 192 C-10.50482926 188.43276122 -14.87874687 184.72704048 -19.24951172 180.99829102 C-22.31592929 178.39251549 -25.41775394 175.87018753 -28.625 173.4375 C-33.05668528 170.04903991 -37.10537304 166.29642377 -41.203125 162.515625 C-43.77838047 160.19933377 -46.41312709 158.02806273 -49.125 155.875 C-69.46568216 139.37326348 -90.96497543 119.55488569 -106 98 C-106.67933594 97.04222656 -107.35867187 96.08445312 -108.05859375 95.09765625 C-119.00665421 78.8690344 -121.72392259 58.76775035 -118.34765625 39.625 C-113.50921179 19.68977819 -100.46528281 3.21566066 -83.28515625 -7.72265625 C-57.20291727 -22.30195906 -22.97920601 -18.41654778 0 0 Z " fill="#FEFEFD" transform="translate(199,147)"/>
<path d="M0 0 C3.04296875 1.828125 3.04296875 1.828125 6.1875 4.25 C10.19658573 7.22344821 13.75168829 9.5355902 18.5625 11.0625 C25.72004683 13.35375581 33.33331284 17.33187452 37.8203125 23.50390625 C39.53482323 27.13162929 39.58178862 30.0709344 39 34 C37.20574723 38.24954603 35.09899275 39.99542409 31 42 C27.44140625 42.40625 27.44140625 42.40625 23.5625 42.5 C18.22727991 42.62920816 14.54727984 43.09663474 10 46 C8.51402397 47.81302052 8.51402397 47.81302052 7.5625 49.875 C5.11134157 54.10598048 2.51484043 56.97578435 -2 59 C-6.2253447 59.92531773 -9.35616362 59.32191819 -13.25 57.375 C-16.92224138 54.20351881 -19.61595309 51.61065599 -20.34765625 46.63671875 C-20.59436688 39.56792288 -18.92256615 34.88384922 -15 29 C-14.66850693 27.07228138 -14.66850693 27.07228138 -14.65625 24.98046875 C-14.62660156 24.20509766 -14.59695312 23.42972656 -14.56640625 22.63085938 C-14.54449219 21.82455078 -14.52257812 21.01824219 -14.5 20.1875 C-14.14298322 7.24039155 -14.14298322 7.24039155 -9.25 2.125 C-5.54535961 -0.29726487 -4.31684626 -0.54026788 0 0 Z " fill="#DB814C" transform="translate(201,234)"/>
<path d="M0 0 C6.20272989 1.38701473 12.48978081 5.36460523 16.18359375 10.48828125 C16.92707133 13.56050266 16.70129727 15.2267491 16.18359375 18.48828125 C13.44562769 21.91073882 11.69861826 22.41229403 7.37109375 23.05078125 C1.74990799 22.77398044 -2.4638751 19.58591061 -6.546875 15.9453125 C-7.81640625 14.48828125 -7.81640625 14.48828125 -7.81640625 12.48828125 C-8.47640625 12.48828125 -9.13640625 12.48828125 -9.81640625 12.48828125 C-10.62890625 9.30078125 -10.62890625 9.30078125 -10.81640625 5.48828125 C-7.95898878 1.15606766 -5.26527143 -0.34836389 0 0 Z " fill="#DD8754" transform="translate(162.81640625,244.51171875)"/>
<path d="M0 0 C5.46950174 3.07723369 10.16857903 7.33715805 13 13 C13.4536037 19.12364999 13.4536037 19.12364999 11.8515625 22.21875 C10 24 10 24 7.2578125 24.3828125 C-1.04430173 23.69959612 -1.04430173 23.69959612 -3.79296875 21.6875 C-5.0625 20.125 -5.0625 20.125 -7 17 C-7.5775 16.4225 -8.155 15.845 -8.75 15.25 C-11.10066196 12.89933804 -11.0347994 11.56848744 -11.3125 8.125 C-11.25797069 5.12588791 -11.07836085 4.12537736 -9.4375 1.5 C-5.9268384 -0.66040714 -4.07345904 -0.67890984 0 0 Z " fill="#DC8552" transform="translate(174,216)"/>
<path d="M0 0 C4.01332247 3.17332474 6.03320419 5.97266177 7 11 C7.09102603 17.22390476 5.88121738 22.09740962 2 27 C-1.5137334 28.39223399 -3.4849338 28.63373391 -7.0078125 27.16015625 C-9.32130417 25.61938953 -10.56550235 24.39506097 -12 22 C-13.02048892 16.20009893 -12.66659056 10.93311262 -10.75 5.375 C-7.74936471 1.30270925 -5.2515496 -1.02469261 0 0 Z " fill="#DC8551" transform="translate(204,200)"/>
<path d="M0 0 C3.11339852 2.63441413 3.89220495 4.28585783 4.5 8.3125 C3.54085676 15.38618139 0.38999322 20.31921642 -5 25 C-8.11877956 26.55938978 -10.57255771 26.3607834 -14 26 C-16.55946914 23.27540382 -16.95649871 21.38426137 -17.375 17.6875 C-16.74456074 11.4881806 -15.34040874 6.88409824 -10.75 2.5 C-7.16180424 -0.26890371 -4.54615835 -0.9435423 0 0 Z " fill="#DB814C" transform="translate(232,214)"/>
<path d="M0 0 C0 0.33 0 0.66 0 1 C-1.5159375 1.2784375 -1.5159375 1.2784375 -3.0625 1.5625 C-7.92651732 2.90258641 -10.75505217 6.31121432 -14 10 C-14.33 9.34 -14.66 8.68 -15 8 C-10.2631049 2.11088717 -8.00366685 -0.30202516 0 0 Z " fill="#E0976A" transform="translate(232,214)"/>
</svg>
